M48
; DRILL file KiCad 10.0.6 date 2026-08-31T15:24:25
; FORMAT={-:-/ absolute / metric / decimal}
; #@! TF.CreationDate,2026-08-31T15:24:25+07:00
; #@! TF.GenerationSoftware,Kicad,Pcbnew,10.0.6
; #@! TF.FileFunction,MixedPlating,1,2
FMAT,2
METRIC
; #@! TA.AperFunction,Plated,PTH,ComponentDrill
T1C0.200
; #@! TA.AperFunction,Plated,PTH,ViaDrill
T2C0.400
; #@! TA.AperFunction,Plated,PTH,ComponentDrill
T3C0.700
; #@! TA.AperFunction,Plated,PTH,ComponentDrill
T4C0.800
; #@! TA.AperFunction,Plated,PTH,ComponentDrill
T5C0.900
; #@! TA.AperFunction,Plated,PTH,ComponentDrill
T6C1.000
; #@! TA.AperFunction,Plated,PTH,ComponentDrill
T7C1.200
; #@! TA.AperFunction,Plated,PTH,ComponentDrill
T8C1.300
; #@! TA.AperFunction,Plated,PTH,ComponentDrill
T9C1.400
; #@! TA.AperFunction,NonPlated,NPTH,ComponentDrill
T10C0.700
%
G90
G05
T1
X64.676Y-99.119
X64.676Y-100.644
X65.438Y-98.357
X65.438Y-99.882
X65.438Y-101.407
X66.201Y-99.119
X66.201Y-100.644
X66.963Y-98.357
X66.963Y-99.882
X66.963Y-101.407
X67.726Y-99.119
X67.726Y-100.644
T2
X60.1Y-89.7
X60.2Y-94.2
X63.9Y-88.8
X68.0Y-87.2
X69.0Y-95.4
X70.007Y-102.343
X70.1Y-93.9
X70.281Y-103.174
X71.478Y-105.754
X71.487Y-104.874
X71.494Y-104.024
X72.8Y-93.7
X72.831Y-106.62
X77.5Y-90.5
X78.1Y-113.0
X78.75Y-89.475
X82.496Y-106.62
X82.524Y-104.874
X82.526Y-105.77
X82.53Y-102.324
X82.532Y-104.024
X82.534Y-103.174
T4
X136.846Y-116.519
X136.846Y-124.414
X139.346Y-116.519
X139.346Y-124.414
X149.759Y-99.611
X152.6Y-126.0
X157.6Y-126.0
X159.989Y-99.611
X163.598Y-98.361
X166.569Y-68.857
X173.829Y-98.361
X174.184Y-68.834
X182.645Y-102.885
X182.645Y-111.475
X184.883Y-114.926
X185.185Y-102.885
X185.185Y-111.475
X187.725Y-102.885
X187.725Y-111.475
X189.883Y-114.926
X190.034Y-98.4
X190.265Y-102.885
X190.275Y-111.475
X192.534Y-98.4
X196.6Y-118.3
X196.6Y-123.3
T5
X62.243Y-116.289
X69.843Y-116.289
X185.035Y-77.28
X185.285Y-69.28
X192.285Y-69.28
X192.285Y-77.28
T6
X59.22Y-125.541
X61.76Y-125.541
X64.3Y-125.541
X66.84Y-125.541
X69.38Y-125.541
X76.896Y-120.784
X76.896Y-123.324
X76.896Y-125.864
X149.175Y-112.8
X149.175Y-117.8
X158.775Y-72.49
X158.785Y-67.41
X164.2Y-77.651
X174.2Y-77.651
X197.218Y-107.025
X197.475Y-90.1
X202.218Y-107.025
X202.475Y-90.1
X203.083Y-71.1
X203.083Y-81.1
X205.45Y-95.96
X205.45Y-101.04
T7
X157.5Y-110.025
X157.5Y-114.075
X177.7Y-104.975
X177.7Y-113.675
X177.7Y-116.625
X177.75Y-107.925
X179.175Y-69.21
X179.175Y-74.29
T8
X63.5Y-67.2
X63.5Y-82.3
X71.1Y-69.6
X71.1Y-82.3
X77.96Y-67.2
X77.96Y-82.3
X85.56Y-69.6
X85.56Y-82.3
X92.42Y-67.2
X92.42Y-82.3
X100.02Y-69.6
X100.02Y-82.3
X106.88Y-67.2
X106.88Y-82.3
X114.48Y-69.6
X114.48Y-82.3
X121.34Y-67.2
X121.34Y-82.3
X128.94Y-69.6
X128.94Y-82.3
X135.8Y-67.2
X135.8Y-82.3
X143.4Y-69.6
X143.4Y-82.3
X151.7Y-55.725
X151.7Y-83.725
T9
X63.521Y-55.676
X63.521Y-60.576
X77.983Y-55.676
X77.983Y-60.576
X92.446Y-55.676
X92.446Y-60.576
X106.908Y-55.676
X106.908Y-60.576
X121.371Y-55.676
X121.371Y-60.576
X135.833Y-55.676
X135.833Y-60.576
X144.884Y-55.202
X144.884Y-60.102
X170.325Y-56.0
X170.325Y-60.9
X174.825Y-56.0
X174.825Y-60.9
X179.325Y-56.0
X179.325Y-60.9
X183.825Y-56.0
X183.825Y-60.9
X188.325Y-56.0
X188.325Y-60.9
X192.825Y-56.0
X192.825Y-60.9
T3
G00X86.952Y-92.3
M15
G01X87.452Y-92.3
M16
G05
G00X86.952Y-110.888
M15
G01X87.452Y-110.888
M16
G05
G00X105.5Y-92.354
M15
G01X106.0Y-92.354
M16
G05
G00X105.5Y-110.888
M15
G01X106.0Y-110.888
M16
G05
G00X124.049Y-92.377
M15
G01X124.549Y-92.377
M16
G05
G00X124.049Y-110.888
M15
G01X124.549Y-110.888
M16
G05
T8
G00X63.521Y-57.676
M15
G01X63.521Y-58.576
M16
G05
G00X77.983Y-57.676
M15
G01X77.983Y-58.576
M16
G05
G00X92.446Y-57.676
M15
G01X92.446Y-58.576
M16
G05
G00X106.908Y-57.676
M15
G01X106.908Y-58.576
M16
G05
G00X121.371Y-57.676
M15
G01X121.371Y-58.576
M16
G05
G00X135.833Y-57.676
M15
G01X135.833Y-58.576
M16
G05
G00X144.884Y-57.202
M15
G01X144.884Y-58.102
M16
G05
G00X170.325Y-58.0
M15
G01X170.325Y-58.9
M16
G05
G00X174.825Y-58.0
M15
G01X174.825Y-58.9
M16
G05
G00X179.325Y-58.0
M15
G01X179.325Y-58.9
M16
G05
G00X183.825Y-58.0
M15
G01X183.825Y-58.9
M16
G05
G00X188.325Y-58.0
M15
G01X188.325Y-58.9
M16
G05
G00X192.825Y-58.0
M15
G01X192.825Y-58.9
M16
G05
T10
G00X86.952Y-107.348
M15
G01X87.452Y-107.348
M16
G05
G00X86.952Y-125.936
M15
G01X87.452Y-125.936
M16
G05
G00X105.5Y-107.402
M15
G01X106.0Y-107.402
M16
G05
G00X105.5Y-125.936
M15
G01X106.0Y-125.936
M16
G05
G00X124.049Y-107.425
M15
G01X124.549Y-107.425
M16
G05
G00X124.049Y-125.936
M15
G01X124.549Y-125.936
M16
G05
M30
