%TF.GenerationSoftware,KiCad,Pcbnew,10.0.6*%
%TF.CreationDate,2026-08-31T15:23:52+07:00*%
%TF.ProjectId,mini Inverter,6d696e69-2049-46e7-9665-727465722e6b,rev?*%
%TF.SameCoordinates,Original*%
%TF.FileFunction,Profile,NP*%
%FSLAX46Y46*%
G04 Gerber Fmt 4.6, Leading zero omitted, Abs format (unit mm)*
G04 Created by KiCad (PCBNEW 10.0.6) date 2026-08-31 15:23:52*
%MOMM*%
%LPD*%
G01*
G04 APERTURE LIST*
%TA.AperFunction,Profile*%
%ADD10C,0.050000*%
%TD*%
%TA.AperFunction,Profile*%
%ADD11C,0.061369*%
%TD*%
G04 APERTURE END LIST*
D10*
X199953886Y-94871949D02*
X199818239Y-94793633D01*
X199707484Y-94682878D01*
X199629168Y-94547231D01*
X199588629Y-94395937D01*
X199583496Y-94317621D01*
X199583496Y-88142621D01*
X199588629Y-88064306D01*
X199629168Y-87913011D01*
X199707483Y-87777365D01*
X199759232Y-87718357D01*
X205034232Y-82443357D01*
X205093239Y-82391609D01*
X205228886Y-82313293D01*
X205380180Y-82272754D01*
X205536812Y-82272754D01*
X205688106Y-82313293D01*
X205823753Y-82391609D01*
X205934508Y-82502364D01*
X206012824Y-82638011D01*
X206053363Y-82789305D01*
X206053363Y-82945937D01*
X206012824Y-83097231D01*
X205934508Y-83232878D01*
X205882760Y-83291885D01*
X200783496Y-88391149D01*
X200783496Y-94317621D01*
X200778363Y-94395937D01*
X200737824Y-94547231D01*
X200659508Y-94682878D01*
X200548753Y-94793633D01*
X200413106Y-94871949D01*
X200261812Y-94912488D01*
X200105180Y-94912488D01*
X199953886Y-94871949D01*
X199606805Y-109793290D02*
X199461916Y-109733275D01*
X199331518Y-109646146D01*
X199220625Y-109535253D01*
X199133496Y-109404855D01*
X199073481Y-109259966D01*
X199042885Y-109106152D01*
X199039033Y-109027738D01*
X199039033Y-102796609D01*
X197348348Y-101105924D01*
X197295624Y-101047753D01*
X197208496Y-100917355D01*
X197148481Y-100772466D01*
X197117885Y-100618652D01*
X197114033Y-100540238D01*
X197114033Y-97077738D01*
X197117885Y-96999324D01*
X197148481Y-96845510D01*
X197208496Y-96700621D01*
X197295625Y-96570223D01*
X197406518Y-96459330D01*
X197536916Y-96372201D01*
X197681805Y-96312186D01*
X197835619Y-96281590D01*
X197992447Y-96281590D01*
X198146261Y-96312186D01*
X198291150Y-96372201D01*
X198421548Y-96459330D01*
X198532441Y-96570223D01*
X198619570Y-96700621D01*
X198679585Y-96845510D01*
X198710181Y-96999324D01*
X198714033Y-97077738D01*
X198714033Y-100208868D01*
X200404718Y-101899553D01*
X200457442Y-101957723D01*
X200544570Y-102088121D01*
X200604585Y-102233010D01*
X200635181Y-102386825D01*
X200639033Y-102465238D01*
X200639033Y-109027738D01*
X200635181Y-109106152D01*
X200604585Y-109259966D01*
X200544570Y-109404855D01*
X200457441Y-109535253D01*
X200346548Y-109646146D01*
X200216150Y-109733275D01*
X200071261Y-109793290D01*
X199917447Y-109823886D01*
X199760619Y-109823886D01*
X199606805Y-109793290D01*
X154503886Y-99954949D02*
X154368239Y-99876633D01*
X154257484Y-99765878D01*
X154179168Y-99630231D01*
X154138629Y-99478936D01*
X154138629Y-99322305D01*
X154179168Y-99171011D01*
X154257484Y-99035364D01*
X154309232Y-98976357D01*
X158309232Y-94976357D01*
X158368239Y-94924609D01*
X158503886Y-94846293D01*
X158655180Y-94805754D01*
X158733496Y-94800621D01*
X165684968Y-94800621D01*
X167083496Y-93402093D01*
X167083496Y-89074149D01*
X163534232Y-85524885D01*
X163482483Y-85465877D01*
X163404168Y-85330231D01*
X163363629Y-85178936D01*
X163363629Y-85022305D01*
X163404168Y-84871010D01*
X163482483Y-84735364D01*
X163593239Y-84624608D01*
X163728885Y-84546293D01*
X163880180Y-84505754D01*
X164036811Y-84505754D01*
X164188106Y-84546293D01*
X164323752Y-84624608D01*
X164382760Y-84676357D01*
X168107760Y-88401357D01*
X168159508Y-88460364D01*
X168237824Y-88596011D01*
X168278363Y-88747305D01*
X168283496Y-88825621D01*
X168283496Y-93650621D01*
X168278363Y-93728937D01*
X168237824Y-93880231D01*
X168159508Y-94015878D01*
X168107760Y-94074885D01*
X166357760Y-95824885D01*
X166298753Y-95876633D01*
X166163106Y-95954949D01*
X166011812Y-95995488D01*
X165933496Y-96000621D01*
X158982024Y-96000621D01*
X155157760Y-99824885D01*
X155098753Y-99876633D01*
X154963106Y-99954949D01*
X154811812Y-99995488D01*
X154655181Y-99995488D01*
X154503886Y-99954949D01*
X57330000Y-53000000D02*
X209800000Y-53000000D01*
X209800000Y-128000000D01*
X57330000Y-128000000D01*
X57330000Y-53000000D01*
D11*
X62170094Y-78643711D02*
X145608496Y-78643711D01*
X62170094Y-80607531D02*
G75*
G02*
X62170094Y-78643669I6J981931D01*
G01*
D10*
X145608496Y-78643711D02*
G75*
G02*
X145608496Y-80607489I4J-981889D01*
G01*
D11*
X145608496Y-80607531D02*
X62170094Y-80607531D01*
D10*
X156433496Y-70525621D02*
G75*
G02*
X156433496Y-68925579I4J800021D01*
G01*
X156433496Y-70525621D02*
X160533496Y-70525621D01*
X160533496Y-68925621D02*
X156433496Y-68925621D01*
X160533496Y-68925621D02*
G75*
G02*
X160533496Y-70525579I4J-799979D01*
G01*
X173583496Y-111325621D02*
G75*
G02*
X173583496Y-109925579I4J700021D01*
G01*
X179483496Y-109925621D02*
X173583496Y-109925621D01*
X180033496Y-111325621D02*
X173583496Y-111325621D01*
X181183496Y-108225621D02*
X179483496Y-109925621D01*
X181733496Y-109625621D02*
X180033496Y-111325621D01*
X188083496Y-108225621D02*
X181183496Y-108225621D01*
X188083496Y-108225621D02*
G75*
G02*
X188083496Y-109625579I4J-699979D01*
G01*
X188083496Y-109625621D02*
X181733496Y-109625621D01*
X190583496Y-73725621D02*
G75*
G02*
X190583496Y-72925579I4J400021D01*
G01*
X190583496Y-73725621D02*
X195883496Y-73725621D01*
X195883496Y-72925621D02*
X190583496Y-72925621D01*
X195883496Y-72925621D02*
G75*
G02*
X195883496Y-73725579I4J-399979D01*
G01*
X197933496Y-73725621D02*
G75*
G02*
X197933496Y-72925579I4J400021D01*
G01*
X197933496Y-73725621D02*
X203233496Y-73725621D01*
X203233496Y-72925621D02*
X197933496Y-72925621D01*
X203233496Y-72925621D02*
G75*
G02*
X203233496Y-73725579I4J-399979D01*
G01*
M02*
