  0
SECTION
  2
HEADER
  9
$ACADVER
  1
AC1006
  9
$EXTMIN
 10
0.000000
 20
0.000000
 30
0.000000
  9
$EXTMAX
 10
360.000000
 20
360.000000
 30
0.000000
  0
ENDSEC
  0
SECTION
  2
ENTITIES
  0
POLYLINE
  8
0
 66
1
 70
1
  0
VERTEX
  8
0
 10
104.000000
 20
307.550611
 42
0.028377
  0
VERTEX
  8
0
 10
94.955553
 20
305.065782
 42
0.035532
  0
VERTEX
  8
0
 10
86.929544
 20
301.711224
 42
0.034726
  0
VERTEX
  8
0
 10
79.315303
 20
297.184691
 42
0.025244
  0
VERTEX
  8
0
 10
71.504498
 20
291.169411
 42
0.048919
  0
VERTEX
  8
0
 10
63.632756
 20
282.991141
 42
0.036143
  0
VERTEX
  8
0
 10
56.574857
 20
272.592004
 42
0.035570
  0
VERTEX
  8
0
 10
50.964846
 20
261.064544
 42
0.042314
  0
VERTEX
  8
0
 10
47.422520
 20
249.500000
 42
0.033552
  0
VERTEX
  8
0
 10
46.128645
 20
240.674997
 42
0.019642
  0
VERTEX
  8
0
 10
45.709642
 20
229.996871
 42
0.019643
  0
VERTEX
  8
0
 10
46.129871
 20
219.320192
 42
0.033591
  0
VERTEX
  8
0
 10
47.424832
 20
210.500000
 42
0.033246
  0
VERTEX
  8
0
 10
50.708616
 20
199.054465
 42
0.020918
  0
VERTEX
  8
0
 10
55.970308
 20
186.169739
 42
0.020952
  0
VERTEX
  8
0
 10
62.264854
 20
173.821758
 42
0.034443
  0
VERTEX
  8
0
 10
68.709824
 20
164.031377
 42
0.023316
  0
VERTEX
  8
0
 10
71.054149
 20
161.234887
 42
0.001850
  0
VERTEX
  8
0
 10
77.633362
 20
154.144094
 42
0.002506
  0
VERTEX
  8
0
 10
85.558985
 20
145.750077
 42
0.001918
  0
VERTEX
  8
0
 10
94.307130
 20
136.647629
 42
-0.000336
  0
VERTEX
  8
0
 10
102.982105
 20
127.678278
 42
-0.000478
  0
VERTEX
  8
0
 10
110.677967
 20
119.695297
 42
-0.000263
  0
VERTEX
  8
0
 10
117.175151
 20
112.935683
 42
-0.007089
  0
VERTEX
  8
0
 10
118.873185
 20
111.116251
 42
0.006760
  0
VERTEX
  8
0
 10
120.431627
 20
109.444187
 42
0.000558
  0
VERTEX
  8
0
 10
124.552124
 20
105.151010
 42
0.000747
  0
VERTEX
  8
0
 10
129.481092
 20
100.042235
 42
0.000575
  0
VERTEX
  8
0
 10
134.873185
 20
94.482933
 42
-0.000083
  0
VERTEX
  8
0
 10
141.155235
 20
88.018829
 42
-0.000046
  0
VERTEX
  8
0
 10
148.838624
 20
80.108705
 42
-0.000046
  0
VERTEX
  8
0
 10
156.631354
 20
72.083087
 42
-0.000073
  0
VERTEX
  8
0
 10
163.279577
 20
65.232933
 42
0.004574
  0
VERTEX
  8
0
 10
169.995969
 20
58.436039
 42
0.012276
  0
VERTEX
  8
0
 10
174.935988
 20
53.762766
 42
0.010780
  0
VERTEX
  8
0
 10
178.660321
 20
50.551553
 42
0.174229
  0
VERTEX
  8
0
 10
180.195113
 20
50.000000
 42
0.175588
  0
VERTEX
  8
0
 10
182.426601
 20
50.808576
 42
0.016817
  0
VERTEX
  8
0
 10
186.810498
 20
54.723103
 42
0.009588
  0
VERTEX
  8
0
 10
194.127929
 20
61.986649
 42
0.001053
  0
VERTEX
  8
0
 10
210.556654
 20
79.003602
 42
-0.000415
  0
VERTEX
  8
0
 10
217.727575
 20
86.450290
 42
-0.000134
  0
VERTEX
  8
0
 10
228.363204
 20
97.470712
 42
-0.000133
  0
VERTEX
  8
0
 10
240.198775
 20
109.721381
 42
-0.000150
  0
VERTEX
  8
0
 10
251.594678
 20
121.503602
 42
0.001629
  0
VERTEX
  8
0
 10
278.802279
 20
149.800599
 42
0.016647
  0
VERTEX
  8
0
 10
289.638745
 20
161.928394
 42
0.035167
  0
VERTEX
  8
0
 10
296.373995
 20
171.251294
 42
0.021992
  0
VERTEX
  8
0
 10
302.966513
 20
183.000000
 42
0.027701
  0
VERTEX
  8
0
 10
308.772374
 20
196.286103
 42
0.034204
  0
VERTEX
  8
0
 10
312.612600
 20
209.239454
 42
0.035400
  0
VERTEX
  8
0
 10
314.560058
 20
222.207381
 42
0.033728
  0
VERTEX
  8
0
 10
314.704807
 20
235.533996
 42
0.018692
  0
VERTEX
  8
0
 10
313.855667
 20
244.545636
 42
0.029866
  0
VERTEX
  8
0
 10
312.387742
 20
252.135628
 42
0.030276
  0
VERTEX
  8
0
 10
310.043130
 20
259.422628
 42
0.019907
  0
VERTEX
  8
0
 10
306.516735
 20
267.500000
 42
0.049020
  0
VERTEX
  8
0
 10
298.256942
 20
280.990051
 42
0.053583
  0
VERTEX
  8
0
 10
287.743200
 20
292.176010
 42
0.054241
  0
VERTEX
  8
0
 10
275.216038
 20
300.763382
 42
0.052502
  0
VERTEX
  8
0
 10
261.000000
 20
306.567856
 42
0.047234
  0
VERTEX
  8
0
 10
252.853957
 20
308.120473
 42
0.028663
  0
VERTEX
  8
0
 10
243.043074
 20
308.479993
 42
0.028605
  0
VERTEX
  8
0
 10
233.208900
 20
307.712592
 42
0.045404
  0
VERTEX
  8
0
 10
224.983041
 20
305.822826
 42
0.044667
  0
VERTEX
  8
0
 10
214.014169
 20
301.109598
 42
0.035577
  0
VERTEX
  8
0
 10
203.138985
 20
294.196559
 42
0.034793
  0
VERTEX
  8
0
 10
193.093925
 20
285.616236
 42
0.037449
  0
VERTEX
  8
0
 10
184.600119
 20
275.921342
 42
0.000000
  0
VERTEX
  8
0
 10
180.105653
 20
269.942382
 42
0.000000
  0
VERTEX
  8
0
 10
176.168029
 20
275.221191
 42
0.034284
  0
VERTEX
  8
0
 10
166.921312
 20
285.991456
 42
0.039888
  0
VERTEX
  8
0
 10
156.716134
 20
294.818089
 42
0.041767
  0
VERTEX
  8
0
 10
145.690805
 20
301.575822
 42
0.045492
  0
VERTEX
  8
0
 10
134.000000
 20
306.183904
 42
0.035474
  0
VERTEX
  8
0
 10
126.968956
 20
307.709187
 42
0.024300
  0
VERTEX
  8
0
 10
118.835129
 20
308.476980
 42
0.024467
  0
VERTEX
  8
0
 10
110.778609
 20
308.449599
 42
0.039786
  0
SEQEND
  0
POLYLINE
  8
0
 66
1
 70
1
  0
VERTEX
  8
0
 10
129.505153
 20
295.643233
 42
-0.056325
  0
VERTEX
  8
0
 10
141.041568
 20
291.131206
 42
-0.046762
  0
VERTEX
  8
0
 10
152.081748
 20
283.916832
 42
-0.043918
  0
VERTEX
  8
0
 10
162.227508
 20
274.272967
 42
-0.037847
  0
VERTEX
  8
0
 10
171.100885
 20
262.535373
 42
0.025540
  0
VERTEX
  8
0
 10
176.507556
 20
255.005563
 42
0.217668
  0
VERTEX
  8
0
 10
180.125399
 20
253.175329
 42
0.238023
  0
VERTEX
  8
0
 10
183.667022
 20
254.789531
 42
0.030347
  0
VERTEX
  8
0
 10
188.647533
 20
261.838417
 42
-0.043406
  0
VERTEX
  8
0
 10
196.969338
 20
272.987489
 42
-0.040071
  0
VERTEX
  8
0
 10
207.300508
 20
282.860739
 42
-0.041482
  0
VERTEX
  8
0
 10
218.632701
 20
290.608867
 42
-0.057801
  0
VERTEX
  8
0
 10
229.931501
 20
295.403651
 42
-0.048012
  0
VERTEX
  8
0
 10
235.987265
 20
296.567708
 42
-0.022937
  0
VERTEX
  8
0
 10
243.911770
 20
296.949093
 42
-0.022930
  0
VERTEX
  8
0
 10
251.962708
 20
296.597614
 42
-0.041354
  0
VERTEX
  8
0
 10
258.465038
 20
295.467091
 42
-0.066799
  0
VERTEX
  8
0
 10
270.111842
 20
290.704038
 42
-0.052149
  0
VERTEX
  8
0
 10
281.200603
 20
282.690053
 42
-0.050808
  0
VERTEX
  8
0
 10
290.675098
 20
272.298251
 42
-0.055391
  0
VERTEX
  8
0
 10
297.545815
 20
260.492320
 42
-0.048714
  0
VERTEX
  8
0
 10
301.478269
 20
248.587368
 42
-0.040501
  0
VERTEX
  8
0
 10
303.349381
 20
235.379246
 42
-0.039616
  0
VERTEX
  8
0
 10
303.084201
 20
221.727580
 42
-0.041453
  0
VERTEX
  8
0
 10
300.657060
 20
208.500000
 42
-0.031784
  0
VERTEX
  8
0
 10
296.281471
 20
195.636439
 42
-0.030842
  0
VERTEX
  8
0
 10
290.273588
 20
183.296577
 42
-0.030784
  0
VERTEX
  8
0
 10
282.780643
 20
171.767081
 42
-0.031377
  0
VERTEX
  8
0
 10
273.972639
 20
161.322201
 42
-0.001082
  0
VERTEX
  8
0
 10
249.190062
 20
135.532196
 42
-0.000487
  0
VERTEX
  8
0
 10
216.560158
 20
101.788569
 42
-0.000012
  0
VERTEX
  8
0
 10
180.622059
 20
64.698074
 42
-0.151613
  0
VERTEX
  8
0
 10
180.054709
 20
64.387968
 42
-0.249684
  0
VERTEX
  8
0
 10
179.678983
 20
64.500122
 42
-0.000900
  0
VERTEX
  8
0
 10
176.284250
 20
67.866755
 42
-0.004359
  0
VERTEX
  8
0
 10
172.447660
 20
71.752490
 42
-0.002687
  0
VERTEX
  8
0
 10
167.998056
 20
76.387968
 42
0.001392
  0
VERTEX
  8
0
 10
153.909083
 20
91.141782
 42
0.000351
  0
VERTEX
  8
0
 10
130.894698
 20
115.074612
 42
0.000364
  0
VERTEX
  8
0
 10
107.635022
 20
139.193394
 42
0.001150
  0
VERTEX
  8
0
 10
92.000000
 20
155.307960
 42
-0.017596
  0
VERTEX
  8
0
 10
81.412867
 20
166.963381
 42
-0.030153
  0
VERTEX
  8
0
 10
73.551804
 20
177.479189
 42
-0.032405
  0
VERTEX
  8
0
 10
67.398811
 20
188.304434
 42
-0.024710
  0
VERTEX
  8
0
 10
62.055349
 20
200.849885
 42
-0.025701
  0
VERTEX
  8
0
 10
59.518674
 20
208.996678
 42
-0.027978
  0
VERTEX
  8
0
 10
57.915465
 20
217.134143
 42
-0.026695
  0
VERTEX
  8
0
 10
57.181285
 20
225.729864
 42
-0.019823
  0
VERTEX
  8
0
 10
57.255763
 20
235.261118
 42
-0.041106
  0
VERTEX
  8
0
 10
59.005759
 20
248.686313
 42
-0.052143
  0
VERTEX
  8
0
 10
62.889343
 20
260.565187
 42
-0.052977
  0
VERTEX
  8
0
 10
69.084765
 20
271.236076
 42
-0.044544
  0
VERTEX
  8
0
 10
77.718449
 20
281.061795
 42
-0.037980
  0
VERTEX
  8
0
 10
86.500095
 20
288.235073
 42
-0.052870
  0
VERTEX
  8
0
 10
95.385130
 20
293.127892
 42
-0.054476
  0
VERTEX
  8
0
 10
104.885429
 20
295.951332
 42
-0.043873
  0
VERTEX
  8
0
 10
115.500000
 20
296.934354
 42
-0.013041
  0
VERTEX
  8
0
 10
119.312722
 20
296.852657
 42
-0.011107
  0
VERTEX
  8
0
 10
123.326514
 20
296.572374
 42
-0.011252
  0
VERTEX
  8
0
 10
126.968366
 20
296.153801
 42
-0.030848
  0
SEQEND
  0
ENDSEC
  0
EOF
